<mxfile host="app.diagrams.net" modified="2024-04-14T20:14:19.486Z" agent="Mozilla/5.0 (Windows NT 10.0; Win64; x64) AppleWebKit/537.36 (KHTML, like Gecko) Chrome/123.0.0.0 Safari/537.36" version="24.2.5" etag="Nn8OZFOlLiwHcwgFyg7Z" type="github">
  <diagram name="Сторінка-1" id="A81O8VrBNSnbID5oUdEY">
    <mxGraphModel>
      <root>
        <mxCell id="0" />
        <mxCell id="1" parent="0" />
      </root>
    </mxGraphModel>
  </diagram>
</mxfile>
